<?xml version="1.0" standalone="no"?>
<!DOCTYPE svg PUBLIC "-//W3C//DTD SVG 20010904//EN"
 "http://www.w3.org/TR/2001/REC-SVG-20010904/DTD/svg10.dtd">
<svg version="1.0" xmlns="http://www.w3.org/2000/svg"
 width="580.000000pt" height="850.000000pt" viewBox="0 0 580.000000 850.000000"
 preserveAspectRatio="xMidYMid meet">
<metadata>
Created by potrace 1.16, written by Peter Selinger 2001-2019
</metadata>
<g transform="translate(0.000000,850.000000) scale(0.100000,-0.100000)"
fill="#000000" stroke="none">
<path d="M1584 8310 c0 -107 2 -151 3 -97 2 53 2 141 0 195 -1 53 -3 9 -3 -98z"/>
<path d="M2566 8420 c2 -47 7 -120 10 -162 4 -53 2 -78 -5 -78 -6 0 -11 -4
-11 -10 0 -5 7 -7 15 -4 9 4 15 0 15 -8 0 -18 31 -48 49 -48 7 0 0 11 -16 24
-25 22 -28 31 -31 105 -5 104 9 106 98 16 35 -36 69 -65 74 -65 6 0 -21 32
-59 70 -44 45 -77 70 -92 70 -31 0 -37 14 -44 100 -6 75 -7 75 -3 -10z"/>
<path d="M2875 8410 c2 -52 9 -110 16 -128 13 -38 -11 -75 -57 -86 -13 -4 -24
-11 -24 -16 0 -12 48 8 75 32 24 20 38 14 129 -56 51 -39 97 -45 210 -30 l48
7 35 76 c19 42 40 87 46 101 6 14 19 34 28 45 17 20 33 149 17 139 -4 -3 -8
-29 -8 -58 0 -36 -5 -58 -15 -66 -9 -7 -23 -29 -32 -49 -83 -186 -77 -177
-129 -185 -109 -15 -138 -9 -201 38 -32 24 -67 48 -78 54 -25 13 -45 83 -56
197 l-8 80 4 -95z"/>
<path d="M3462 8208 c-1 -191 -6 -298 -12 -298 -5 0 -10 -4 -10 -8 0 -4 8 -8
18 -8 16 0 17 17 14 226 -4 370 -8 403 -10 88z"/>
<path d="M2296 8125 c4 -8 10 -15 14 -15 5 0 11 -10 13 -22 4 -23 4 -23 6 -1
1 14 9 23 24 26 16 3 13 5 -10 6 -18 0 -33 6 -33 11 0 6 -4 10 -10 10 -5 0 -7
-7 -4 -15z"/>
<path d="M2420 8110 c0 -5 7 -7 15 -4 8 4 15 8 15 10 0 2 -7 4 -15 4 -8 0 -15
-4 -15 -10z"/>
<path d="M2514 8071 c4 -5 44 -34 90 -65 106 -69 103 -62 60 -151 -19 -42 -33
-79 -31 -82 6 -5 77 140 77 157 0 5 11 10 25 10 14 0 25 4 25 9 0 4 -10 6 -23
4 -16 -3 -51 15 -120 61 -95 65 -114 75 -103 57z"/>
<path d="M3990 7915 c-50 -38 -96 -46 -103 -17 -4 13 -5 11 -6 -5 -1 -18 4
-23 22 -23 24 0 24 -2 30 -132 5 -113 17 -195 44 -315 5 -21 -44 -77 -143
-164 -16 -14 -46 -44 -68 -67 -39 -43 -56 -46 -56 -11 0 10 -4 19 -9 19 -5 0
-6 -12 -2 -27 9 -32 -11 -62 -124 -183 -39 -41 -88 -97 -110 -125 -22 -27 -50
-61 -63 -73 -13 -13 -34 -41 -48 -63 -36 -58 -95 -58 -114 0 -15 47 27 161 61
161 24 0 73 72 98 146 11 32 30 84 41 114 14 37 22 86 25 150 l4 95 -9 -86
c-4 -47 -15 -106 -24 -130 -8 -24 -27 -78 -42 -119 -26 -75 -77 -160 -94 -160
-6 0 -11 19 -11 43 l-2 42 -7 -45 c-4 -25 -19 -70 -33 -100 -31 -63 -33 -84
-12 -133 13 -33 13 -38 -11 -88 -14 -29 -28 -68 -31 -86 -5 -31 -8 -33 -49
-33 -24 0 -44 -3 -44 -7 0 -5 25 -6 55 -5 43 3 56 0 61 -12 7 -19 -17 -76 -32
-76 -6 0 -19 -9 -29 -20 -13 -15 -31 -20 -67 -20 -26 0 -48 -3 -48 -8 0 -4 19
-6 43 -4 l42 4 2 -86 c2 -128 -54 -159 -86 -48 l-11 37 5 -39 c2 -21 12 -48
22 -60 28 -32 17 -196 -13 -196 -24 0 -47 -47 -41 -85 4 -22 0 -46 -9 -63 -17
-34 -17 -52 1 -76 13 -17 13 -22 -1 -38 -12 -13 -15 -28 -10 -57 3 -23 2 -42
-4 -46 -5 -3 -10 -26 -10 -51 0 -32 -4 -44 -15 -44 -8 0 -15 -5 -15 -11 0 -5
5 -7 11 -3 6 3 15 0 20 -7 7 -11 9 -11 9 3 0 9 6 19 13 21 10 4 10 6 0 6 -17
1 -17 63 -1 79 7 7 22 12 34 12 28 0 32 -20 21 -125 -4 -44 -10 -118 -13 -165
-2 -46 -8 -88 -13 -93 -15 -15 -60 14 -63 42 -2 14 -7 -25 -12 -86 l-8 -113
-29 0 c-16 0 -29 -4 -29 -8 0 -5 13 -7 29 -4 24 3 30 0 34 -19 4 -22 4 -22 6
4 1 30 50 42 52 12 4 -68 1 -194 -5 -212 -8 -26 -60 -33 -69 -10 -3 6 -5 -1
-5 -18 0 -16 2 -24 5 -17 9 24 63 15 63 -11 0 -46 -44 -63 -60 -24 -10 22 -10
22 -7 -3 1 -17 9 -26 25 -28 25 -4 30 -33 8 -51 -11 -10 -17 -7 -30 11 -10 13
-16 17 -16 9 0 -8 7 -23 17 -33 26 -29 4 -68 -39 -68 -65 0 -228 -58 -228 -80
0 -5 22 2 48 16 92 48 205 68 216 38 14 -36 7 -74 -14 -74 -11 0 -20 -4 -20
-9 0 -4 11 -6 25 -3 22 4 25 1 25 -26 0 -41 -19 -51 -42 -22 -13 16 -18 18
-18 7 0 -9 9 -22 20 -30 20 -14 20 -16 4 -138 -8 -68 -17 -144 -19 -169 -13
-178 -40 -230 -118 -230 -39 0 -52 -7 -120 -62 -41 -35 -106 -85 -142 -113
-36 -27 -85 -65 -108 -84 -23 -18 -87 -63 -142 -98 -55 -36 -120 -79 -145 -96
-49 -34 -199 -163 -242 -209 -15 -15 -31 -28 -35 -28 -7 0 -75 -52 -185 -140
-25 -20 -42 -28 -55 -23 -16 6 -16 5 -4 -10 8 -10 12 -20 10 -22 -2 -2 -35
-38 -74 -78 -87 -91 -107 -114 -182 -213 -82 -107 -105 -128 -135 -119 -20 7
-21 6 -10 -8 15 -18 6 -41 -27 -71 -12 -11 -21 -24 -22 -30 -1 -14 -115 -116
-129 -116 -6 0 -15 10 -19 23 -5 12 -32 44 -60 70 -28 26 -53 60 -57 75 -9 40
-32 88 -49 102 -8 7 -15 20 -15 29 0 9 -7 26 -15 37 -8 12 -12 24 -8 27 10 10
-20 141 -36 161 -20 23 -20 96 -2 224 9 59 12 134 8 209 -5 113 8 216 34 265
5 10 9 31 9 46 0 16 6 42 14 58 7 16 17 61 20 99 4 39 13 84 21 100 44 93 85
195 85 214 0 12 23 69 50 126 35 73 50 117 51 147 0 24 8 55 17 69 39 61 58
86 89 122 18 20 33 44 33 52 0 7 16 40 35 72 19 32 35 62 35 67 0 4 14 25 30
46 17 21 30 42 30 47 0 6 9 18 20 28 11 10 20 23 20 29 0 6 16 29 35 51 19 22
35 45 35 51 0 14 43 54 57 54 6 0 9 8 6 19 -3 11 8 36 26 61 17 24 31 53 31
66 0 34 36 41 66 13 27 -25 33 -16 8 12 -15 17 -15 21 12 53 16 19 35 35 42
35 7 1 35 21 61 46 26 25 51 45 55 45 7 0 151 120 217 180 15 14 40 32 55 41
72 41 151 89 174 107 14 10 36 25 50 32 14 7 43 27 65 44 22 18 72 51 110 73
39 23 86 57 105 75 86 82 107 91 113 51 3 -23 4 -22 6 9 1 31 8 41 49 71 26
19 58 47 71 61 14 14 29 26 36 26 6 0 37 27 70 61 32 33 67 65 77 70 10 5 18
14 18 20 0 16 -51 -24 -111 -86 -29 -30 -57 -55 -62 -55 -8 0 -88 -65 -143
-117 -13 -12 -31 -24 -41 -27 -10 -3 -43 -28 -73 -56 -30 -28 -86 -69 -125
-92 -38 -24 -91 -58 -116 -78 -26 -19 -59 -43 -75 -53 -73 -44 -103 -63 -160
-98 -64 -41 -84 -47 -84 -26 0 8 -13 26 -30 40 -16 15 -30 22 -30 16 0 -6 11
-20 24 -30 41 -32 39 -55 -7 -91 -23 -18 -74 -61 -113 -95 -39 -35 -75 -63
-79 -63 -4 0 -30 -20 -56 -45 -54 -50 -64 -54 -72 -25 -3 11 -11 20 -18 20
-10 0 -10 -3 -1 -12 19 -19 14 -40 -19 -76 -38 -42 -78 -45 -117 -10 -51 47
-89 62 -217 92 -33 8 -113 28 -178 45 -65 17 -133 31 -151 31 -19 0 -52 6 -74
14 -46 17 -230 36 -339 36 -97 0 -103 3 -103 55 0 24 -4 47 -10 50 -45 28 44
245 143 351 31 34 57 66 57 71 0 25 51 34 77 13 40 -31 51 -24 13 9 l-34 28
39 59 c22 33 55 77 72 100 18 23 33 46 33 53 0 6 8 11 18 11 20 0 140 101 162
136 8 13 20 24 26 24 6 0 42 27 80 61 38 33 80 66 94 72 14 6 34 18 45 28 11
9 31 19 45 22 88 19 143 37 175 55 20 12 44 22 53 22 27 0 110 29 189 66 l73
34 32 -19 c18 -11 53 -22 78 -26 25 -4 70 -14 100 -22 30 -9 105 -23 165 -32
l110 -17 6 -34 c4 -22 7 -27 8 -12 1 16 7 22 24 22 28 0 167 -46 181 -60 6 -6
19 -10 31 -10 11 0 58 -14 105 -31 47 -17 103 -37 125 -43 36 -12 41 -17 46
-52 6 -38 6 -38 8 -6 1 26 5 32 24 32 38 0 50 -14 43 -51 l-5 -34 11 33 c12
36 22 39 67 16 18 -9 35 -14 37 -11 10 10 -116 57 -153 57 -11 0 -23 3 -27 7
-4 4 -24 13 -44 19 -20 7 -75 26 -122 43 -47 17 -94 31 -105 31 -12 0 -25 4
-31 10 -15 15 -154 60 -185 60 -23 0 -30 6 -38 33 -5 17 -10 24 -10 15 -1 -10
-9 -18 -18 -18 -32 0 -197 29 -248 44 -27 8 -68 17 -90 20 -80 12 -135 47
-135 84 0 19 -6 48 -14 65 -7 18 -22 55 -33 82 -49 119 -59 142 -85 190 -15
27 -40 78 -57 112 -17 34 -51 83 -76 109 -25 26 -45 49 -45 50 0 2 -11 20 -25
40 -31 46 -31 64 0 94 14 13 25 28 25 34 0 11 20 26 65 52 11 6 36 20 56 32
97 55 411 70 474 22 6 -4 24 -11 42 -15 18 -3 49 -17 68 -31 44 -29 101 -54
126 -54 10 0 45 -25 77 -55 33 -30 64 -55 69 -55 6 0 18 -18 28 -41 10 -22 28
-48 40 -57 47 -38 82 -122 50 -122 -8 0 -15 -4 -15 -9 0 -4 12 -6 26 -3 24 4
84 -38 84 -59 0 -4 27 -48 60 -97 33 -50 60 -95 60 -99 0 -5 14 -31 32 -59 57
-89 98 -173 92 -189 -4 -11 -2 -13 9 -9 10 4 21 -4 31 -23 11 -20 15 -23 16
-10 0 9 -8 25 -17 35 -17 18 -83 134 -83 146 0 2 8 7 18 9 13 4 11 5 -6 6 -21
1 -82 78 -82 104 0 4 -27 49 -60 99 -33 49 -60 93 -60 97 0 12 -55 61 -68 61
-7 0 -12 10 -12 21 0 26 -37 89 -62 107 -10 7 -27 30 -37 51 l-19 37 34 28
c19 15 34 32 34 37 0 6 -16 -3 -35 -20 -47 -41 -50 -40 -119 25 -51 49 -57 58
-51 82 4 15 8 54 10 87 l3 60 -8 -55 c-15 -96 -22 -120 -35 -120 -19 0 -102
37 -109 48 -3 6 -28 18 -54 27 -26 10 -63 24 -82 33 -39 17 -236 34 -260 22
-8 -4 -36 -10 -62 -13 -45 -6 -47 -5 -51 21 l-4 27 -2 -27 c-1 -21 -7 -29 -28
-34 -16 -3 -46 -15 -68 -26 -22 -12 -52 -27 -67 -35 -15 -8 -30 -19 -34 -24
-3 -5 -15 -7 -27 -3 -20 6 -20 5 -8 -10 19 -23 -22 -69 -53 -61 -20 6 -20 5
-3 -8 37 -30 14 -55 -68 -73 -49 -11 -127 -56 -175 -102 -25 -23 -55 -45 -67
-48 -13 -4 -20 -10 -17 -15 3 -5 -2 -19 -10 -31 -9 -12 -16 -27 -16 -33 1 -14
39 37 40 52 0 6 8 14 18 17 9 4 37 25 62 48 52 49 116 86 180 103 25 7 52 15
60 18 18 8 62 -56 54 -78 -4 -11 -2 -13 9 -10 20 8 81 -64 119 -140 16 -33 41
-83 56 -110 26 -48 36 -71 85 -190 11 -27 26 -64 33 -82 31 -71 21 -96 -53
-130 -72 -32 -159 -63 -180 -63 -8 0 -14 16 -15 43 l-1 42 -6 -45 c-8 -61 -34
-75 -208 -117 -21 -5 -23 -2 -23 33 0 22 -5 46 -10 54 -6 10 -7 -2 -3 -37 7
-59 -2 -76 -51 -98 -17 -7 -62 -41 -100 -74 -76 -66 -86 -71 -86 -41 0 11 -4
20 -9 20 -4 0 -6 -11 -4 -24 6 -31 -7 -50 -87 -119 -74 -65 -79 -67 -102 -29
-12 19 -18 22 -18 10 0 -9 5 -20 10 -23 18 -11 11 -37 -23 -79 -48 -61 -107
-151 -107 -164 0 -12 -38 -27 -57 -24 -8 2 -10 -3 -7 -13 4 -10 -14 -37 -52
-78 -106 -113 -193 -342 -143 -373 19 -11 4 -122 -19 -147 -11 -12 -28 -37
-38 -56 -11 -18 -24 -41 -29 -50 -49 -78 -95 -162 -95 -173 0 -7 -8 -31 -19
-53 -30 -64 -41 -105 -48 -175 -3 -36 -13 -90 -23 -120 -12 -40 -18 -93 -19
-197 -1 -141 -1 -142 25 -166 l26 -25 -18 -68 c-35 -134 -29 -380 14 -519 17
-55 18 -63 27 -350 3 -110 10 -204 15 -209 6 -6 10 -20 10 -32 0 -13 4 -26 10
-29 5 -3 11 -25 11 -48 1 -23 5 -55 9 -72 5 -18 6 0 3 43 -5 66 -4 72 13 73
14 1 12 3 -6 8 -16 4 -26 15 -28 31 -2 14 -8 30 -12 35 -5 6 -12 107 -15 225
-4 118 -8 222 -10 230 -6 22 6 37 35 43 24 4 24 4 -3 6 -80 4 -115 372 -55
582 10 34 14 37 57 43 138 18 294 54 240 55 -14 1 -45 -5 -70 -13 -24 -8 -81
-19 -125 -26 l-82 -12 -31 33 -32 33 3 130 c1 89 7 149 19 186 9 30 19 84 22
120 7 70 18 111 48 175 11 22 19 46 19 53 0 11 46 95 95 173 5 9 18 32 29 50
10 19 26 43 36 54 10 11 20 29 22 39 4 22 82 24 283 5 148 -13 185 -25 186
-58 2 -24 2 -24 6 -3 6 31 44 29 190 -9 65 -17 145 -37 178 -45 125 -29 190
-57 224 -98 7 -9 20 -16 27 -16 24 0 16 -45 -16 -88 -17 -23 -30 -49 -30 -58
0 -8 -13 -27 -30 -41 -16 -13 -30 -30 -30 -36 -1 -28 -39 -60 -55 -47 -9 7
-18 11 -20 8 -3 -3 1 -10 9 -17 16 -13 0 -57 -29 -81 -8 -7 -15 -17 -15 -22 0
-30 -55 -80 -82 -74 -18 3 -27 2 -23 -4 3 -6 15 -10 26 -10 26 0 25 -6 -16
-73 -19 -32 -35 -64 -35 -72 0 -8 -17 -34 -37 -59 -49 -58 -76 -96 -85 -118
-9 -22 -23 -22 -78 -3 -45 16 -290 22 -290 8 0 -5 50 -7 112 -5 85 3 127 -1
175 -15 l63 -18 0 -38 c0 -25 -17 -73 -50 -142 -28 -57 -50 -114 -50 -126 0
-20 -46 -134 -87 -217 l-17 -33 -68 3 c-50 2 -69 -1 -73 -10 -8 -22 -6 -27 7
-14 7 7 39 12 75 12 l63 0 -6 -62 c-4 -35 -13 -76 -20 -92 -8 -16 -14 -44 -14
-62 0 -18 -4 -35 -9 -38 -4 -3 -11 -25 -15 -48 -15 -95 -27 -118 -59 -118 -16
0 -36 8 -44 17 -13 17 -14 16 -8 -4 4 -14 2 -23 -4 -23 -6 0 -11 -5 -11 -10 0
-7 6 -7 19 0 49 26 78 13 85 -36 9 -72 7 -194 -5 -260 -17 -93 -17 -217 1
-239 17 -21 42 -129 34 -150 -3 -8 1 -24 10 -37 9 -12 16 -30 16 -39 0 -9 7
-22 15 -29 17 -14 40 -62 49 -101 5 -23 2 -27 -24 -33 -17 -3 -30 -10 -30 -16
0 -7 6 -8 19 0 11 5 28 10 38 10 19 0 106 -84 116 -112 4 -10 11 -18 17 -18
11 0 13 -61 4 -97 -5 -17 -14 -23 -36 -23 -32 0 -88 -25 -88 -40 0 -5 15 -1
33 10 87 53 137 -11 138 -180 1 -73 6 -103 20 -128 11 -18 19 -43 19 -56 0
-40 50 -169 71 -182 5 -3 9 -24 9 -46 0 -28 10 -56 30 -89 16 -27 36 -64 44
-83 8 -18 30 -51 49 -72 30 -34 77 -106 77 -119 0 -3 -10 -5 -22 -5 -33 0 -68
-11 -68 -21 0 -5 12 -4 26 1 71 27 134 -35 134 -132 0 -18 7 -46 15 -62 8 -15
15 -36 15 -45 1 -27 48 -152 64 -170 9 -10 16 -22 16 -27 0 -5 20 -35 45 -66
25 -32 45 -62 45 -68 0 -5 4 -10 9 -10 5 0 16 -16 26 -36 9 -20 25 -44 35 -54
11 -11 26 -38 34 -62 8 -24 15 -39 16 -34 0 5 11 -1 25 -14 l25 -23 0 -198 c0
-109 3 -200 8 -202 4 -3 6 88 4 201 l-2 207 -28 25 c-23 21 -52 69 -52 85 0 3
8 6 18 6 9 1 4 4 -12 8 -20 4 -35 19 -53 51 -14 25 -29 46 -34 48 -5 2 -9 8
-9 13 0 5 -20 35 -45 67 -25 31 -45 61 -45 66 0 5 -7 17 -16 27 -16 18 -63
143 -64 170 0 9 -7 30 -15 45 -8 16 -15 44 -15 63 0 18 -13 60 -30 92 -29 58
-31 89 -5 89 7 0 53 42 102 94 113 120 201 192 216 177 19 -19 31 -12 12 9
-17 18 -15 21 46 94 35 41 70 75 77 75 7 1 10 6 7 11 -4 6 14 29 39 51 24 22
48 49 51 59 9 28 43 26 48 -2 3 -18 5 -15 6 8 1 28 10 37 82 83 95 60 87 58
92 24 4 -26 4 -26 6 4 1 36 29 61 126 113 33 18 78 45 99 61 60 43 121 42 131
-4 13 -62 17 -172 6 -207 -23 -74 -31 -357 -13 -445 11 -51 3 -106 -20 -153
-9 -18 -20 -22 -60 -22 -26 0 -48 -3 -48 -7 0 -5 23 -6 52 -4 l51 3 -8 -78
c-4 -44 -9 -124 -11 -179 -1 -55 -5 -141 -9 -190 -4 -68 -2 -99 8 -125 l15
-34 -59 -70 c-32 -38 -59 -76 -59 -83 0 -8 -12 -13 -31 -13 -35 0 -109 -19
-124 -32 -5 -4 -24 -8 -41 -8 -18 0 -36 -4 -39 -10 -12 -20 -53 -11 -58 13
l-4 22 -2 -23 c0 -12 -14 -35 -31 -50 l-30 -27 -2 -202 c-2 -110 0 -199 4
-196 5 2 8 91 8 198 l0 193 31 26 c17 15 43 26 59 26 16 0 32 5 35 10 11 18
65 12 66 -7 1 -12 3 -10 8 6 11 41 151 72 151 33 0 -10 4 -22 10 -28 5 -5 11
-107 13 -239 l2 -230 3 237 c1 150 -2 239 -8 243 -26 16 -8 63 50 133 79 93
92 94 252 11 20 -10 42 -19 49 -19 20 0 111 -65 150 -107 67 -72 64 -59 70
-287 l5 -211 2 183 2 183 32 27 c44 38 78 57 113 66 36 9 97 48 146 94 29 27
42 32 60 27 19 -6 21 -5 12 5 -12 13 2 60 19 60 4 0 25 16 47 35 l39 35 1098
-4 c605 -2 1128 -6 1164 -9 l65 -5 -60 8 c-157 20 -165 22 -165 42 0 10 -18
38 -40 62 l-40 43 0 986 c0 542 -3 988 -7 990 -5 3 -7 -440 -5 -984 2 -1074 6
-1008 -49 -979 -17 10 -19 22 -19 143 l0 133 -29 28 c-16 15 -125 70 -252 127
-201 89 -228 104 -266 146 l-43 47 0 466 c0 256 -4 470 -8 477 -4 6 -6 -204
-4 -468 l3 -479 -58 0 c-90 0 -103 14 -103 109 0 88 -15 118 -73 147 -18 9
-49 32 -69 52 l-38 36 0 202 0 202 -26 31 c-14 17 -31 31 -37 31 -6 0 3 -15
21 -33 l32 -33 0 -202 0 -202 -35 0 c-40 0 -140 42 -172 72 -21 19 -23 31 -23
112 0 78 -4 98 -25 138 -14 26 -25 52 -25 59 0 20 -73 129 -86 129 -9 0 -14
12 -14 34 0 18 -11 53 -24 78 -13 24 -27 55 -31 69 -9 29 -72 136 -97 165 -10
11 -18 27 -18 36 0 9 -7 21 -15 28 -8 7 -15 20 -15 29 0 9 -18 34 -40 55 -23
21 -47 53 -54 71 -25 60 -91 159 -138 208 -27 28 -48 54 -48 59 0 12 -54 79
-107 136 -24 24 -43 48 -43 52 0 5 -11 17 -25 28 -14 11 -25 24 -25 28 0 5
-35 48 -78 96 -42 47 -103 117 -134 155 -31 37 -87 104 -124 148 -37 44 -74
82 -83 84 -9 2 -22 12 -29 22 -9 12 -25 19 -48 19 -40 0 -44 22 -22 117 12 51
14 53 48 54 l35 2 -40 6 c-28 4 -39 11 -36 21 1 8 9 69 17 135 8 66 19 130 25
142 8 15 9 44 2 99 -10 78 -1 130 25 156 7 7 12 24 12 39 0 15 5 31 10 34 6 3
10 22 10 41 0 59 15 77 58 70 27 -5 33 -4 22 3 -8 6 -25 11 -37 11 -34 0 -40
81 -17 252 5 33 2 53 -6 63 -11 13 -10 18 5 28 13 10 17 28 17 78 -1 35 3 84
9 109 8 42 20 201 19 263 -1 69 0 85 5 137 3 30 11 65 17 78 9 18 9 30 -2 55
-7 18 -12 43 -12 57 1 14 3 53 5 87 3 72 32 108 77 97 14 -3 48 -7 75 -9 l50
-3 -45 8 c-101 19 -100 19 -102 64 -4 81 3 120 24 143 30 32 38 29 38 -15 0
-34 8 -45 81 -117 45 -44 113 -118 152 -165 89 -107 484 -500 503 -500 8 0 14
-6 14 -14 0 -17 268 -325 339 -388 35 -32 51 -54 51 -71 0 -14 15 -52 34 -85
34 -60 70 -198 54 -208 -4 -3 -8 -10 -8 -16 0 -6 6 -5 16 3 14 11 19 10 35
-10 34 -41 16 -83 -20 -48 -11 10 -13 9 -9 -3 3 -8 14 -16 25 -18 24 -4 73
-90 73 -131 0 -15 9 -40 20 -54 11 -14 20 -31 20 -38 0 -18 20 -77 41 -124 10
-22 21 -53 25 -70 4 -16 20 -46 36 -65 37 -45 42 -154 8 -163 -11 -3 -20 -11
-20 -18 0 -10 3 -10 12 -1 19 19 38 14 38 -11 0 -13 9 -59 21 -103 25 -95 38
-171 43 -239 2 -28 11 -66 21 -85 11 -19 18 -48 16 -64 -2 -16 4 -61 12 -100
21 -98 37 -208 42 -291 8 -143 17 -210 30 -229 12 -16 12 -23 1 -45 -8 -14
-22 -64 -31 -111 -25 -127 -37 -165 -57 -190 -18 -22 -25 -22 -73 -5 -20 7
-20 6 -1 -9 11 -9 28 -16 38 -16 15 0 18 -9 19 -52 l2 -53 6 56 c7 69 23 89
70 91 l36 1 -33 4 c-30 4 -33 7 -27 26 3 12 12 54 19 92 33 174 37 180 118
172 39 -3 55 -2 43 3 -11 5 -38 9 -60 9 -64 1 -78 44 -90 266 -3 79 -19 185
-42 291 -21 98 -18 108 37 115 l45 5 -45 5 c-54 5 -80 41 -85 121 -2 29 -7 70
-11 91 -6 35 -5 37 22 38 l29 1 -30 7 c-36 8 -69 116 -81 264 l-7 87 174 2
c219 2 306 -1 344 -12 17 -5 105 -12 196 -15 l167 -7 10 -42 c6 -22 13 -50 15
-62 4 -20 -10 -297 -18 -364 -16 -125 -73 -255 -107 -244 -14 4 -18 2 -14 -5
4 -6 14 -11 22 -11 18 0 18 -28 0 -82 -8 -24 -20 -71 -27 -106 -6 -34 -16 -65
-20 -68 -5 -3 -8 -20 -8 -37 1 -20 3 -24 6 -12 2 11 8 29 13 40 9 19 30 102
52 210 5 28 21 75 35 105 49 106 59 158 72 390 8 148 5 224 -14 270 -3 9 7 40
21 70 37 75 46 297 15 359 -17 32 -18 44 -9 77 47 170 -8 410 -134 587 -17 24
-19 38 -13 86 9 75 -19 229 -53 296 -13 27 -28 61 -32 75 -5 14 -11 33 -15 43
-5 13 -2 17 14 17 12 0 21 4 21 9 0 5 -9 7 -20 4 -27 -7 -55 19 -89 81 -14 27
-32 58 -38 70 -18 30 -16 50 7 71 11 10 20 25 20 33 0 9 -8 5 -21 -12 -28 -35
-28 -35 -88 40 -51 63 -52 66 -35 85 9 10 15 21 12 24 -3 3 -11 -1 -18 -10
-19 -23 -30 -19 -80 29 -25 25 -69 64 -99 88 -92 74 -93 76 -22 147 34 34 56
61 50 61 -6 0 -37 -27 -68 -59 l-57 -60 -40 19 c-21 10 -65 30 -98 45 -57 26
-58 27 -53 61 4 20 2 32 -4 29 -5 -4 -9 -18 -9 -32 0 -21 -4 -24 -22 -20 -13
3 -40 9 -60 12 -21 4 -42 13 -49 21 -6 8 -19 14 -29 14 -18 0 -73 29 -119 62
-56 40 7 170 188 381 42 49 88 105 103 125 23 33 196 198 224 215 11 7 26 1
133 -52 74 -36 151 -117 181 -188 13 -32 33 -67 43 -78 11 -11 28 -33 38 -50
12 -20 19 -24 19 -13 0 14 -38 69 -61 88 -3 3 -16 31 -29 63 -40 97 -114 160
-271 232 -28 12 -39 25 -48 54 -14 49 -14 49 7 54 9 3 3 5 -15 6 -24 1 -39 10
-62 40 -44 55 -132 87 -276 101 -138 13 -280 13 -303 0 -9 -5 -37 -18 -62 -29
-25 -11 -78 -38 -117 -60 -83 -47 -99 -50 -106 -18 -37 162 -62 437 -41 437 5
0 34 18 64 40 30 22 48 40 40 39 -8 0 -35 -16 -60 -34z m575 -385 c144 -14
232 -46 276 -101 17 -21 37 -39 44 -39 10 0 26 -43 29 -80 1 -3 -46 -48 -103
-100 -56 -52 -115 -111 -130 -132 -14 -20 -60 -76 -102 -125 -126 -147 -198
-260 -205 -319 -9 -73 -26 -79 -299 -99 -99 -7 -243 -22 -320 -34 -77 -11
-178 -25 -225 -31 -47 -6 -96 -14 -110 -16 -95 -19 -117 -21 -132 -13 -9 5
-26 9 -37 9 -14 0 -21 6 -21 20 0 11 -7 23 -16 27 -20 8 -15 38 23 120 27 61
29 63 65 63 33 0 41 5 64 42 15 23 35 49 44 58 10 8 39 42 66 75 127 160 283
320 298 305 16 -16 30 -12 16 5 -15 18 23 67 86 114 23 16 59 50 80 75 21 25
46 46 56 46 10 0 51 18 91 41 39 22 92 49 117 60 25 11 52 24 60 29 21 12 153
12 285 0z m-174 -978 c40 -31 99 -62 116 -62 9 0 24 -6 32 -14 9 -8 41 -19 71
-25 30 -6 82 -24 115 -40 33 -16 83 -39 110 -51 28 -13 60 -36 73 -51 13 -16
51 -50 85 -76 34 -27 75 -63 91 -80 15 -18 34 -33 42 -33 8 0 14 -5 14 -10 0
-14 101 -140 112 -140 4 0 8 -10 8 -22 0 -13 6 -33 13 -44 6 -12 23 -41 36
-65 13 -24 34 -55 46 -69 13 -14 30 -47 39 -73 9 -26 27 -69 40 -95 33 -65 58
-212 50 -290 l-7 -62 -38 0 c-21 0 -49 4 -63 9 -14 6 -84 7 -168 3 -80 -4
-185 -4 -234 -1 -209 13 -462 -33 -616 -113 -14 -7 -28 1 -64 34 -52 47 -334
366 -334 377 0 3 12 14 28 23 19 12 22 18 10 18 -9 0 -20 -4 -23 -10 -3 -5
-14 -10 -25 -10 -22 0 -407 379 -507 500 -39 47 -107 121 -152 165 -78 77 -81
81 -81 126 0 60 18 77 63 61 31 -11 93 -6 155 13 20 7 22 4 24 -26 l1 -34 4
31 c4 31 5 31 86 43 45 6 145 21 222 32 77 12 221 27 320 35 201 15 253 22
261 35 8 13 19 11 45 -9z m-1312 -628 c16 -36 -4 -84 -36 -84 -30 0 -41 51
-19 85 21 32 40 32 55 -1z m-9 -124 c0 -36 -19 -80 -35 -80 -19 0 -46 47 -38
67 19 53 73 63 73 13z m-13 -121 c15 -40 2 -69 -32 -69 -32 0 -45 52 -19 81
24 27 38 24 51 -12z m2038 -428 c319 3 389 -3 409 -35 8 -11 27 -41 42 -66 84
-134 121 -356 85 -502 -11 -41 -10 -51 8 -85 30 -60 24 -267 -10 -338 l-25
-50 -169 4 c-93 2 -181 8 -195 13 -14 6 -128 10 -271 9 l-245 -1 -31 37 c-16
21 -33 52 -37 68 -3 17 -15 48 -25 70 -21 47 -41 106 -41 124 0 7 -9 24 -20
38 -11 14 -20 39 -20 55 0 16 -11 49 -25 74 -14 25 -25 58 -25 74 0 20 -10 41
-29 61 -22 22 -32 46 -40 94 -7 38 -26 89 -46 125 -57 100 -46 118 100 168
103 36 363 77 405 65 8 -3 101 -4 205 -2z m-2107 -43 c18 -18 15 -28 -8 -28
-13 0 -20 7 -20 20 0 23 10 26 28 8z m28 -53 c15 -38 -6 -85 -36 -85 -31 0
-42 38 -24 84 8 20 53 21 60 1z m-104 -1282 l2 -48 3 48 c2 26 7 47 12 47 15
0 31 -25 32 -49 1 -18 3 -21 6 -8 10 37 11 36 221 -216 31 -38 92 -108 134
-155 77 -86 88 -102 68 -102 -5 0 -10 -4 -10 -10 0 -5 7 -7 15 -3 16 5 55 -22
55 -39 0 -4 -7 -8 -15 -8 -8 0 -15 -4 -15 -9 0 -5 9 -7 21 -4 36 10 169 -148
151 -178 -17 -26 -15 -34 4 -18 26 22 143 -123 190 -237 8 -18 18 -35 23 -39
6 -3 7 -13 4 -22 -4 -11 -3 -14 6 -9 16 10 61 -31 61 -55 0 -9 7 -22 15 -29 8
-7 15 -19 15 -28 0 -9 8 -25 18 -36 25 -29 88 -136 97 -165 4 -14 18 -45 31
-69 29 -55 31 -93 4 -110 -11 -7 -20 -17 -20 -24 0 -6 7 -4 18 5 10 10 25 17
34 17 15 0 88 -107 88 -129 0 -7 11 -33 25 -59 21 -39 25 -61 25 -129 l0 -83
-30 0 c-17 0 -67 18 -112 40 -45 22 -84 38 -86 35 -9 -8 167 -85 195 -85 15 0
38 -10 52 -23 38 -34 142 -77 188 -77 32 0 46 -7 73 -35 19 -19 40 -35 47 -35
7 0 31 -16 53 -36 l40 -36 0 -79 0 -79 -323 0 -322 0 -90 90 c-49 50 -94 90
-100 90 -5 0 33 -43 85 -95 l95 -95 330 0 c267 -1 335 -3 355 -15 14 -8 52
-14 84 -15 58 0 61 -2 100 -44 36 -38 70 -56 255 -137 128 -57 229 -107 252
-127 l39 -34 0 -129 0 -129 -814 0 -814 0 -36 42 c-35 40 -36 45 -36 118 0 63
-3 80 -19 94 -22 20 -91 129 -91 144 0 6 -12 25 -26 42 -27 31 -39 52 -97 165
-30 58 -58 98 -135 193 -46 58 -272 282 -283 282 -5 0 -25 18 -45 40 -20 22
-41 40 -48 41 -6 0 -28 21 -48 45 -21 25 -38 43 -38 39 0 -3 -40 26 -89 65
-58 46 -98 70 -115 70 -30 0 -31 9 -27 165 3 121 5 125 49 127 l37 1 -38 4
c-31 4 -37 7 -32 21 7 20 24 141 30 222 3 30 8 71 11 90 4 19 8 58 9 85 2 55
17 145 39 245 9 36 15 82 16 102 0 59 15 88 47 89 27 2 27 2 3 6 -34 6 -47 20
-32 35 7 7 12 35 12 63 0 27 4 65 10 83 5 19 12 91 16 160 6 108 10 130 27
150 35 38 57 29 59 -25z m-96 -128 c-4 -63 -12 -130 -17 -148 -5 -17 -9 -55
-9 -84 0 -28 -5 -55 -10 -58 -6 -4 -10 -18 -10 -33 1 -40 -17 -173 -34 -244
-20 -90 -38 -203 -35 -230 1 -13 -1 -39 -5 -58 -3 -19 -8 -60 -11 -90 -8 -90
-22 -192 -34 -245 -7 -27 -13 -107 -14 -177 l-2 -127 -40 -41 c-34 -35 -45
-40 -85 -40 -35 0 -56 -7 -86 -29 -21 -16 -66 -43 -99 -61 -33 -18 -76 -44
-95 -59 -19 -14 -39 -28 -45 -31 -36 -17 -165 -104 -165 -111 0 -15 -37 -10
-44 6 -3 8 -11 15 -17 15 -8 0 -8 -4 1 -15 18 -21 4 -50 -46 -93 -24 -22 -44
-44 -44 -50 0 -6 -3 -12 -7 -14 -13 -5 -133 -145 -133 -154 -1 -5 -27 -29 -58
-53 -31 -25 -99 -89 -150 -143 -106 -110 -109 -112 -115 -60 -3 34 -4 33 -5
-10 -2 -51 -17 -63 -31 -25 -5 13 -28 46 -52 73 -23 27 -48 63 -56 82 -7 18
-27 54 -43 81 -38 61 -42 120 -7 122 17 1 16 3 -7 8 -40 8 -96 119 -96 190 0
12 -8 33 -17 47 -12 19 -17 54 -20 127 -3 82 -8 112 -27 152 -41 87 -27 155
47 224 54 51 58 53 75 38 29 -26 38 -20 12 8 l-23 24 32 36 c17 20 31 42 31
50 0 8 6 15 13 15 17 0 70 56 147 158 44 57 66 80 74 72 5 -5 15 -10 20 -10 6
0 5 5 -2 12 -19 19 -15 26 50 94 63 66 78 75 78 49 0 -8 4 -15 10 -15 6 0 6 9
2 23 -13 34 -5 49 45 87 25 19 75 59 112 87 79 63 79 63 84 16 3 -35 4 -34 5
10 2 37 6 49 21 55 11 4 19 10 18 13 -3 8 166 157 223 196 25 17 90 60 145 96
55 35 119 80 142 98 23 19 72 57 108 84 36 28 101 78 142 113 69 55 81 62 121
62 l45 0 -7 -115z m-6 -1598 c63 -51 120 -102 126 -114 6 -13 14 -20 18 -16 8
9 76 -57 76 -74 0 -7 6 -10 13 -7 37 14 357 -341 424 -471 58 -113 70 -134 97
-165 14 -17 26 -36 26 -42 0 -15 69 -124 91 -144 15 -14 19 -31 19 -91 l0 -73
-45 0 c-27 0 -63 9 -86 21 -23 11 -43 18 -46 15 -13 -12 80 -46 128 -46 48 0
55 -3 84 -38 l33 -37 828 -6 c456 -3 843 -9 859 -13 37 -10 115 -84 115 -108
0 -17 -47 -18 -1051 -18 l-1052 0 -38 -35 c-41 -37 -54 -42 -64 -25 -3 6 -11
10 -18 10 -7 0 -5 -7 5 -16 18 -18 6 -64 -17 -64 -6 0 -22 -12 -36 -26 -34
-36 -118 -91 -154 -100 -35 -8 -94 -44 -114 -68 -20 -24 -31 -20 -31 13 0 48
-159 201 -209 201 -7 0 -29 9 -49 19 -86 44 -131 61 -165 61 -51 0 -70 46 -62
140 4 36 8 115 9 175 4 145 17 298 26 310 4 6 13 34 20 63 l12 52 46 2 47 1
-50 6 -50 6 -8 45 c-15 82 -6 357 14 420 11 36 7 173 -6 223 -7 24 -2 34 31
68 56 57 70 53 204 -54z"/>
<path d="M2750 1060 c0 -5 7 -7 15 -4 8 4 15 8 15 10 0 2 -7 4 -15 4 -8 0 -15
-4 -15 -10z"/>
<path d="M3280 7877 c0 -8 18 -35 40 -58 29 -31 47 -64 62 -114 12 -38 33 -85
46 -103 16 -22 21 -39 17 -53 -5 -15 -4 -19 4 -15 6 4 11 15 12 24 0 9 18 32
41 50 22 17 37 32 34 32 -8 0 23 58 42 78 6 7 12 23 11 35 0 19 -2 18 -11 -6
-8 -22 -14 -26 -31 -21 -19 6 -20 5 -9 -9 15 -17 -14 -73 -58 -112 l-23 -20
-19 26 c-53 71 -83 222 -49 244 6 3 11 13 11 22 0 11 -6 8 -20 -10 -11 -14
-20 -30 -20 -35 0 -28 -22 -19 -50 19 -16 23 -30 35 -30 26z"/>
<path d="M2972 7810 c0 -19 2 -27 5 -17 2 9 2 25 0 35 -3 9 -5 1 -5 -18z"/>
<path d="M3440 7816 c0 -15 37 -32 47 -22 4 3 1 6 -5 6 -6 0 -18 7 -26 16 -14
13 -16 13 -16 0z"/>
<path d="M2601 7704 c-7 -20 -11 -38 -8 -40 3 -3 10 11 17 31 16 47 8 55 -9 9z"/>
<path d="M3452 7460 c0 -19 2 -27 5 -17 2 9 2 25 0 35 -3 9 -5 1 -5 -18z"/>
<path d="M837 7033 c-11 -13 -17 -26 -15 -29 7 -7 40 34 37 44 -2 6 -12 -1
-22 -15z"/>
<path d="M5356 6800 c5 -52 4 -57 -20 -70 -14 -7 -26 -17 -26 -22 0 -5 14 -1
31 9 31 18 31 18 53 -9 12 -16 27 -28 34 -28 7 0 -3 16 -23 35 -22 22 -35 46
-36 63 -1 15 -5 38 -10 52 -5 17 -6 7 -3 -30z"/>
<path d="M3370 6047 c0 -10 8 -17 18 -17 9 0 13 4 7 8 -5 4 -13 11 -17 16 -5
5 -8 2 -8 -7z"/>
<path d="M2961 5390 c-1 -8 -4 -26 -7 -40 -5 -22 -4 -23 6 -7 6 10 9 28 7 40
-2 12 -5 15 -6 7z"/>
<path d="M3150 4796 c0 -15 37 -32 47 -22 4 3 1 6 -5 6 -6 0 -18 7 -26 16 -14
13 -16 13 -16 0z"/>
<path d="M3370 4647 c0 -10 8 -17 18 -17 9 0 13 4 7 8 -5 4 -13 11 -17 16 -5
5 -8 2 -8 -7z"/>
<path d="M3520 4507 c0 -10 8 -17 18 -17 9 0 13 4 7 8 -5 4 -13 11 -17 16 -5
5 -8 2 -8 -7z"/>
<path d="M3570 4459 c0 -6 25 -34 56 -62 31 -28 75 -76 98 -105 22 -29 55 -71
71 -93 17 -21 38 -60 48 -87 10 -26 23 -55 28 -64 5 -10 9 -25 9 -35 0 -9 56
-72 125 -139 69 -67 125 -117 125 -111 0 5 -54 62 -120 126 -66 64 -120 124
-120 134 0 9 -4 25 -9 35 -5 9 -18 38 -28 64 -10 27 -31 66 -48 87 -96 125
-118 151 -174 203 -33 32 -61 53 -61 47z"/>
<path d="M620 4440 c0 -5 7 -7 15 -4 8 4 15 8 15 10 0 2 -7 4 -15 4 -8 0 -15
-4 -15 -10z"/>
<path d="M1995 4351 c-25 -10 -165 -169 -222 -253 -23 -33 -63 -81 -89 -107
-45 -44 -88 -123 -81 -145 2 -6 12 10 21 36 11 27 39 67 67 95 27 26 63 70 80
97 17 28 61 83 98 124 36 42 80 90 96 109 21 24 43 36 75 42 42 8 43 9 10 9
-19 1 -44 -3 -55 -7z"/>
<path d="M1556 3758 c-3 -13 -6 -35 -6 -50 0 -27 -96 -118 -125 -118 -18 0
-105 -79 -105 -96 0 -8 16 3 35 25 20 21 52 47 73 56 82 39 129 90 135 147 7
55 3 73 -7 36z"/>
<path d="M4146 3711 c7 -36 43 -124 44 -105 0 6 -11 40 -25 75 -16 39 -23 51
-19 30z"/>
<path d="M5413 3039 c-7 -18 -11 -34 -9 -37 7 -7 27 39 24 55 -2 9 -8 2 -15
-18z"/>
<path d="M301 2968 c11 -40 30 -89 44 -110 14 -21 26 -48 26 -60 1 -18 3 -17
8 7 4 21 1 35 -11 47 -25 25 -43 66 -58 131 -7 31 -16 57 -20 57 -4 0 1 -32
11 -72z"/>
<path d="M5370 2925 c-7 -9 -11 -18 -8 -20 3 -3 11 1 18 10 7 9 11 18 8 20 -3
3 -11 -1 -18 -10z"/>
<path d="M5319 2837 c-9 -12 -19 -42 -23 -67 -4 -31 -3 -40 4 -30 5 8 10 26
10 39 0 14 7 32 16 42 9 10 14 22 13 27 -2 6 -11 0 -20 -11z"/>
<path d="M374 2728 l-10 -33 -174 -3 c-113 -2 -178 -6 -185 -14 -7 -8 -5 -9 7
-5 24 8 365 10 378 2 18 -11 11 -51 -13 -73 -22 -21 -32 -22 -195 -22 -94 0
-173 -3 -175 -7 -3 -5 77 -7 176 -5 169 3 184 5 205 24 26 25 30 79 7 98 -9 8
-12 22 -8 41 8 39 -2 37 -13 -3z"/>
<path d="M555 2319 c4 -6 4 -26 1 -44 l-7 -35 -277 -3 -277 -2 290 -3 c210 -1
294 -5 303 -14 9 -9 12 -9 12 1 0 7 -8 15 -19 18 -15 4 -18 12 -13 49 3 30 1
44 -7 44 -7 0 -9 -5 -6 -11z"/>
<path d="M671 2059 c0 -8 -11 -25 -24 -37 -22 -21 -31 -22 -337 -25 l-315 -2
321 -3 321 -2 22 24 c13 14 21 32 18 43 -3 13 -5 14 -6 2z"/>
<path d="M380 1830 l-385 -5 388 -3 c253 -1 387 1 387 8 0 6 -1 9 -2 8 -2 -2
-176 -5 -388 -8z"/>
<path d="M780 1755 c-11 -13 -64 -15 -391 -15 -208 0 -380 -3 -382 -7 -10 -16
767 -4 782 12 8 8 12 17 9 20 -3 3 -11 -1 -18 -10z"/>
</g>
</svg>
