<?xml version="1.0" standalone="no"?>
<!DOCTYPE svg PUBLIC "-//W3C//DTD SVG 20010904//EN"
 "http://www.w3.org/TR/2001/REC-SVG-20010904/DTD/svg10.dtd">
<svg version="1.0" xmlns="http://www.w3.org/2000/svg"
 width="580.000000pt" height="850.000000pt" viewBox="0 0 580.000000 850.000000"
 preserveAspectRatio="xMidYMid meet">
<metadata>
Created by potrace 1.16, written by Peter Selinger 2001-2019
</metadata>
<g transform="translate(0.000000,850.000000) scale(0.100000,-0.100000)"
fill="#000000" stroke="none">
<path d="M0 7093 c1 -1578 -7 -1450 75 -1276 23 50 56 111 73 135 16 23 44 72
62 107 18 36 43 81 55 100 22 34 73 158 144 356 32 87 203 431 241 485 10 15
61 110 113 211 140 272 191 365 226 404 17 20 31 39 31 44 0 5 24 35 53 68 28
33 65 77 80 97 16 20 46 48 67 61 21 14 62 47 91 75 28 27 57 50 63 50 7 0 25
14 41 30 16 17 32 30 37 30 4 0 29 14 55 30 26 17 56 29 65 26 10 -2 21 0 24
5 6 11 71 40 129 59 22 6 58 20 80 31 273 126 618 111 717 -30 21 -29 109 -91
120 -85 5 4 3 13 -6 22 -34 39 -25 47 58 52 l79 5 -2 86 c-2 89 18 143 48 125
15 -10 6 -114 -15 -169 -18 -48 -20 -44 24 -65 29 -15 51 -18 100 -14 73 5
162 -27 222 -82 76 -69 111 -89 161 -91 50 -2 131 -45 126 -68 -3 -18 37 -14
54 6 8 10 40 25 70 32 78 20 152 46 169 60 8 7 35 20 60 29 25 8 63 22 85 30
122 43 402 54 449 17 6 -4 25 -11 41 -14 94 -17 297 -116 419 -204 21 -15 58
-39 82 -53 76 -45 208 -165 274 -251 36 -45 79 -99 96 -118 113 -129 241 -352
284 -491 17 -58 36 -114 41 -125 91 -196 130 -457 109 -716 l-13 -159 31 -80
c18 -45 32 -88 32 -96 0 -16 68 -164 75 -164 3 0 5 650 5 1445 l0 1445 -2900
0 -2900 0 0 -1407z m3029 1167 c66 -100 77 -135 34 -111 -18 9 -113 160 -113
179 0 5 -9 21 -20 34 -23 30 -14 46 12 21 9 -10 49 -65 87 -123z"/>
<path d="M2285 8140 c-3 -5 4 -23 16 -40 l23 -30 23 22 c29 27 29 26 -12 44
-41 17 -42 17 -50 4z"/>
<path d="M2415 8121 c-7 -12 12 -24 25 -16 11 7 4 25 -10 25 -5 0 -11 -4 -15
-9z"/>
<path d="M2506 8081 c-3 -4 17 -22 44 -40 94 -61 130 -131 100 -191 -5 -11
-15 -30 -21 -41 -6 -13 -7 -25 -1 -31 9 -9 62 58 62 80 0 6 18 26 40 43 43 35
50 56 23 66 -10 3 -28 15 -39 25 -12 11 -28 18 -35 17 -19 -3 -87 28 -126 57
-35 26 -39 28 -47 15z"/>
<path d="M4000 7943 c-19 -8 -50 -22 -68 -31 -17 -8 -35 -12 -39 -9 -3 4 -13
2 -20 -5 -12 -10 -11 -14 8 -29 19 -14 25 -31 31 -96 4 -43 10 -112 15 -153
18 -185 1 -252 -78 -304 -20 -14 -53 -45 -74 -71 -29 -35 -43 -45 -63 -43 -19
2 -27 -2 -30 -17 -7 -31 -53 -94 -147 -196 -48 -52 -116 -126 -153 -166 -99
-108 -104 -90 -21 82 27 55 49 105 49 111 0 16 39 136 51 157 15 28 24 203 10
211 -13 8 -18 -3 -25 -59 -11 -88 -38 -195 -56 -220 -3 -5 -12 -28 -18 -50
-17 -61 -74 -130 -78 -95 -1 6 -2 13 -3 17 -2 11 -71 -59 -96 -98 -60 -93
-131 -423 -86 -394 19 11 20 -13 1 -30 -11 -10 -20 -23 -20 -30 0 -6 -13 -24
-30 -40 -26 -25 -33 -54 -10 -40 14 8 23 -14 25 -62 2 -47 -8 -62 -30 -43 -37
31 -101 -270 -65 -306 7 -7 7 -19 1 -37 -6 -14 -13 -49 -16 -79 -7 -67 -7 -66
-1 -105 3 -18 1 -35 -4 -38 -6 -4 -5 -14 2 -25 9 -14 9 -25 0 -45 -10 -21 -10
-31 -1 -41 10 -12 7 -20 -15 -43 -29 -30 -24 -43 17 -46 19 -2 41 28 30 39
-20 19 -3 73 18 60 10 -6 1 -171 -9 -189 -4 -5 -5 -42 -3 -81 1 -44 -2 -74 -8
-79 -6 -3 -9 -10 -6 -15 3 -5 1 -11 -4 -14 -5 -4 -12 -2 -15 3 -4 5 -2 12 3
16 10 6 10 10 -4 50 -6 19 -7 19 -20 1 -10 -12 -11 -25 -5 -42 5 -13 6 -26 1
-28 -4 -3 -8 -22 -9 -42 -1 -28 -10 -46 -34 -71 -29 -30 -30 -39 -4 -34 5 1
19 -8 31 -19 15 -14 25 -18 30 -11 11 19 23 2 20 -27 -2 -15 -6 -58 -10 -96
-7 -80 -12 -91 -31 -75 -11 9 -15 8 -20 -4 -9 -24 5 -41 22 -26 11 9 15 8 20
-4 9 -24 -5 -41 -21 -27 -10 9 -16 7 -24 -9 -9 -17 -8 -22 9 -31 11 -6 18 -15
15 -21 -4 -5 -11 -7 -16 -3 -6 3 -15 -9 -22 -26 -10 -27 -29 -40 -125 -87 -62
-31 -115 -59 -117 -64 -13 -20 18 -17 69 7 31 14 60 23 64 20 5 -3 23 -1 40 3
37 11 54 -4 45 -37 -6 -23 13 -56 27 -47 12 7 23 -13 15 -25 -5 -8 -11 -7 -21
1 -16 13 -16 13 -33 -63 -6 -26 -11 -68 -11 -95 -1 -26 -6 -68 -11 -93 -6 -25
-10 -58 -10 -73 0 -16 -11 -51 -26 -78 -14 -28 -23 -52 -20 -56 13 -12 -35
-63 -86 -92 -29 -16 -64 -42 -77 -57 -26 -27 -165 -134 -176 -134 -3 0 -34
-25 -69 -55 -34 -30 -65 -55 -68 -55 -4 0 -32 -16 -63 -36 -30 -19 -69 -40
-85 -46 -16 -5 -34 -19 -40 -29 -5 -10 -16 -19 -24 -19 -9 0 -51 -34 -94 -75
-43 -41 -84 -75 -90 -75 -7 0 -40 -26 -74 -58 -34 -32 -91 -79 -127 -104 -36
-26 -84 -66 -107 -90 -122 -126 -240 -259 -269 -303 -33 -52 -77 -97 -130
-133 -17 -12 -39 -37 -48 -56 -15 -33 -72 -85 -124 -114 -27 -15 -112 45 -112
79 0 18 -8 37 -32 79 -4 8 -11 22 -14 30 -3 8 -12 28 -20 43 -7 16 -14 46 -14
66 0 36 -11 83 -31 126 -9 21 -6 196 5 255 20 107 26 201 14 223 -5 10 -6 26
-3 35 4 9 7 35 7 57 1 22 3 45 7 50 3 6 7 21 9 35 2 13 8 30 13 36 5 6 10 30
12 52 1 23 6 44 10 48 4 4 7 22 7 40 0 18 6 48 14 66 8 18 24 55 36 81 11 27
23 63 26 80 3 18 10 41 14 52 5 11 19 54 30 95 12 41 24 82 27 90 4 8 7 22 8
30 1 8 17 39 35 67 18 29 34 67 35 84 2 17 12 40 23 52 12 12 21 24 21 27 0 3
4 18 10 33 6 16 11 33 11 39 0 5 13 27 30 48 16 20 27 40 24 43 -3 3 14 37 38
76 68 113 87 145 97 166 5 12 16 27 25 34 9 7 16 19 16 26 0 7 7 19 17 26 9 8
25 33 35 57 10 23 23 42 28 42 4 0 19 17 31 38 36 58 101 137 111 134 4 -1 13
9 17 22 5 13 23 34 39 47 16 13 81 69 143 125 136 120 281 229 364 273 33 18
96 56 140 86 44 30 83 55 88 55 4 0 42 27 85 60 146 113 163 125 171 123 4 -1
41 27 81 63 40 35 79 64 86 64 19 0 134 109 134 127 0 8 9 28 21 44 68 95 -69
62 -175 -42 -28 -28 -62 -58 -76 -67 -68 -45 -169 -129 -207 -171 -27 -31 -56
-52 -84 -61 -23 -8 -65 -34 -93 -58 -28 -24 -64 -51 -81 -59 -16 -9 -48 -31
-71 -49 -23 -19 -44 -34 -47 -34 -3 0 -26 -13 -49 -29 -58 -39 -87 -45 -123
-27 -38 20 -52 10 -25 -19 l22 -24 -20 -25 c-10 -14 -39 -41 -63 -61 -24 -19
-61 -49 -81 -65 -20 -17 -41 -30 -45 -30 -5 0 -24 -15 -42 -34 -18 -18 -50
-39 -73 -47 -25 -8 -43 -21 -49 -36 -5 -13 -16 -23 -26 -24 -10 0 -29 -2 -43
-3 -14 -2 -36 1 -50 7 -14 6 -29 9 -34 8 -4 -1 -14 3 -21 9 -6 5 -63 21 -125
35 -62 14 -125 32 -140 40 -15 8 -81 24 -146 36 -181 33 -238 45 -254 52 -8 3
-58 8 -110 11 -180 9 -216 37 -204 156 5 56 12 78 35 107 16 20 29 42 29 49 0
16 105 131 134 146 12 7 37 15 56 18 24 4 34 11 31 21 -11 34 0 81 28 123 34
50 166 180 225 223 21 15 60 47 86 71 26 23 52 42 57 42 5 0 18 9 28 20 10 11
28 20 41 20 13 0 25 4 29 9 5 9 95 55 140 71 11 5 46 20 78 34 32 14 64 26 73
26 8 0 48 13 87 30 86 35 159 51 213 44 118 -15 219 -35 233 -48 11 -9 35 -13
74 -12 32 2 60 -1 63 -6 3 -5 17 -8 30 -6 14 2 29 -5 37 -17 13 -16 17 -17 31
-6 25 21 143 -17 193 -62 17 -16 26 -17 36 -8 11 8 25 6 63 -11 27 -12 58 -23
69 -25 42 -6 120 -42 120 -55 1 -32 17 -41 35 -18 15 19 20 21 39 10 17 -9 20
-14 11 -25 -8 -9 -8 -15 0 -20 10 -6 12 -5 14 18 1 14 7 14 59 3 102 -22 40
59 -68 89 -33 9 -76 20 -95 24 -19 4 -45 13 -56 19 -12 6 -107 40 -212 75
-151 51 -195 69 -214 92 -23 26 -25 27 -53 13 -25 -14 -34 -13 -89 3 -34 11
-74 19 -89 19 -15 0 -44 7 -64 15 -19 8 -46 15 -58 15 -31 0 -87 25 -107 47
-26 29 -108 181 -108 200 0 13 -81 172 -118 233 -12 19 -22 41 -22 48 0 7 -16
34 -35 59 -19 25 -35 51 -35 58 0 7 -7 18 -15 25 -8 7 -15 23 -15 36 0 12 -4
26 -10 29 -50 31 84 160 170 164 8 0 33 3 55 6 22 2 52 0 68 -7 23 -9 31 -8
47 7 62 56 310 -10 435 -115 11 -10 32 -20 47 -24 60 -14 238 -200 238 -249 0
-20 7 -30 23 -36 24 -9 127 -130 127 -148 0 -6 9 -18 20 -28 11 -10 43 -64 71
-119 28 -56 56 -107 61 -114 6 -7 21 -31 34 -55 12 -23 27 -41 33 -40 6 2 18
-8 27 -22 9 -14 20 -22 25 -19 14 8 0 53 -36 119 -18 33 -34 65 -35 70 0 6
-13 24 -29 40 -15 17 -40 57 -56 90 -15 33 -43 83 -61 112 -19 28 -34 59 -34
68 0 10 -20 35 -45 57 -25 22 -45 48 -45 58 0 9 -6 23 -14 30 -8 6 -13 17 -10
24 2 6 -8 21 -24 33 -33 24 -47 79 -31 120 13 34 4 43 -29 31 -52 -20 -141 54
-128 107 3 11 -1 33 -9 49 -8 16 -15 34 -15 42 0 44 -31 10 -53 -57 -9 -27
-52 -28 -97 -3 -23 13 -60 29 -83 36 -23 6 -58 21 -77 32 -25 14 -58 20 -115
23 -102 3 -108 4 -121 14 -7 6 -29 -1 -58 -17 -25 -14 -53 -24 -60 -21 -8 3
-17 3 -20 0 -3 -4 -17 -8 -31 -9 -14 -1 -47 -19 -74 -38 -27 -20 -53 -36 -59
-36 -5 0 -15 -7 -22 -15 -7 -8 -21 -15 -32 -15 -12 0 -24 -12 -34 -35 -8 -20
-22 -39 -30 -42 -9 -3 -19 -15 -24 -27 -4 -12 -18 -26 -31 -32 -99 -45 -146
-74 -170 -104 -16 -19 -47 -46 -69 -60 -44 -27 -80 -84 -63 -101 6 -6 34 14
79 58 84 83 203 147 249 134 6 -2 18 -5 29 -7 10 -2 28 -13 40 -24 11 -11 39
-35 60 -53 21 -17 45 -45 53 -62 12 -28 19 -40 43 -82 6 -10 15 -29 20 -43 6
-14 15 -32 20 -40 6 -8 13 -22 16 -30 3 -8 14 -31 25 -51 10 -20 16 -39 13
-42 -3 -3 1 -16 10 -29 9 -12 16 -35 16 -51 0 -15 7 -39 16 -52 9 -13 13 -33
10 -43 -10 -30 -80 -72 -120 -72 -19 0 -38 -4 -41 -10 -8 -13 -52 -13 -60 0
-3 5 -23 -8 -45 -29 -21 -21 -45 -38 -52 -38 -7 0 -41 -3 -75 -6 -46 -4 -65
-2 -73 9 -15 17 -30 9 -30 -16 0 -10 -15 -29 -32 -41 -18 -13 -49 -39 -68 -59
-46 -48 -103 -90 -122 -90 -9 0 -32 -26 -51 -57 -36 -57 -103 -109 -147 -116
-23 -4 -31 -10 -33 -29 -2 -13 -19 -39 -69 -105 -16 -20 -28 -41 -28 -48 0 -6
-26 -37 -57 -67 -120 -115 -211 -252 -227 -343 -3 -15 -12 -35 -21 -45 -12
-13 -14 -32 -10 -85 6 -66 5 -69 -25 -100 -28 -29 -30 -35 -19 -54 11 -16 11
-23 1 -33 -6 -6 -12 -24 -12 -38 0 -15 -9 -35 -19 -44 -11 -10 -22 -28 -25
-42 -4 -13 -20 -47 -36 -74 -17 -28 -28 -55 -26 -58 2 -4 -2 -23 -10 -42 -9
-19 -15 -37 -15 -40 -1 -3 -6 -11 -12 -19 -19 -23 -36 -83 -43 -151 -3 -36
-15 -96 -27 -134 -14 -51 -17 -74 -9 -86 9 -16 8 -168 -2 -225 -3 -18 1 -29
17 -40 23 -15 26 -52 11 -145 -3 -19 -7 -46 -9 -60 -2 -14 -6 -35 -9 -47 -3
-13 0 -25 5 -29 6 -3 9 -45 8 -98 -2 -50 1 -98 6 -106 5 -8 13 -37 17 -65 5
-27 10 -61 12 -75 3 -14 7 -41 11 -60 4 -19 9 -73 11 -120 10 -246 16 -336 25
-344 5 -6 9 -20 9 -32 0 -13 5 -35 12 -51 6 -15 10 -37 9 -49 -1 -11 5 -26 12
-33 8 -6 13 -20 10 -30 -3 -10 0 -22 6 -26 14 -8 25 20 15 37 -10 15 -6 66 7
90 7 13 4 20 -12 28 -11 7 -18 14 -15 18 3 3 -1 16 -9 28 -21 33 -20 471 1
495 12 14 11 19 -11 39 -76 71 -83 496 -10 569 17 18 89 41 125 41 14 0 48 7
75 16 28 9 56 19 64 21 11 3 11 7 3 15 -8 8 -32 7 -94 -5 -141 -27 -160 -27
-193 -1 l-30 24 -2 136 c-1 84 2 144 9 157 6 12 15 30 20 39 4 10 8 37 8 61 0
48 32 183 52 219 6 13 13 31 15 40 1 9 16 37 33 61 16 25 30 49 30 54 0 6 9
18 20 28 12 11 28 34 36 52 29 59 173 120 257 107 23 -3 73 -8 111 -10 41 -2
84 -11 107 -22 21 -11 41 -17 44 -14 8 9 78 5 105 -6 14 -5 41 -13 60 -17 19
-4 40 -11 46 -17 7 -5 16 -8 20 -6 15 3 98 -14 119 -25 11 -6 26 -10 33 -8 31
6 118 -34 149 -68 40 -44 40 -48 4 -98 -16 -23 -28 -43 -25 -45 2 -3 -7 -20
-21 -39 -13 -19 -29 -44 -34 -56 -6 -13 -15 -23 -21 -23 -6 0 -15 -10 -21 -22
-23 -53 -103 -164 -123 -171 -7 -3 -16 -21 -19 -41 -3 -20 -17 -51 -31 -69
-14 -19 -26 -41 -26 -50 0 -8 -24 -40 -52 -70 -61 -63 -116 -81 -293 -94 -108
-9 -135 -27 -45 -30 146 -7 180 -14 215 -45 26 -23 33 -34 26 -46 -5 -10 -10
-21 -10 -27 -3 -14 -47 -102 -76 -150 -15 -25 -24 -53 -23 -75 1 -26 -8 -49
-36 -88 -21 -30 -38 -63 -39 -73 -1 -19 -56 -69 -80 -73 -22 -3 -37 -17 -31
-27 3 -6 12 -8 20 -5 17 6 65 -10 63 -21 -1 -5 0 -10 1 -13 8 -19 6 -68 -5
-80 -10 -13 -26 -45 -29 -60 -1 -3 -5 -10 -9 -17 -4 -6 -2 -15 3 -18 8 -5 6
-13 -6 -26 -9 -10 -14 -25 -11 -33 3 -8 -1 -20 -9 -27 -9 -7 -11 -16 -5 -22
11 -11 -14 -62 -31 -62 -7 0 -13 -4 -13 -10 0 -5 -4 -16 -8 -22 -8 -12 -2 -17
15 -15 23 4 43 -106 23 -137 -4 -7 -1 -18 5 -26 7 -8 9 -15 5 -15 -4 0 -3 -6
2 -12 13 -17 10 -102 -4 -119 -6 -8 -13 -38 -16 -67 -3 -29 -12 -61 -21 -71
-16 -17 -15 -19 9 -35 14 -9 24 -20 22 -25 -1 -5 6 -16 16 -23 10 -7 19 -29
21 -48 1 -19 6 -47 11 -63 4 -17 3 -32 -4 -41 -8 -10 -8 -16 4 -26 8 -7 15
-18 15 -26 0 -7 13 -28 29 -46 53 -62 67 -112 39 -145 -11 -14 -1 -20 42 -25
14 -2 23 -6 20 -10 -3 -3 6 -18 19 -32 13 -14 21 -32 18 -40 -4 -9 0 -28 8
-43 20 -38 19 -51 -10 -88 -32 -43 -35 -58 -10 -60 11 -1 30 -2 42 -3 49 -4
98 -185 61 -229 -8 -10 -4 -21 15 -46 13 -18 33 -62 42 -97 10 -36 22 -70 26
-75 20 -26 51 -130 47 -156 -3 -21 0 -33 12 -39 10 -5 27 -31 39 -57 37 -80
52 -104 67 -110 24 -9 57 -82 45 -97 -6 -7 -8 -16 -4 -19 3 -4 0 -13 -7 -22
-7 -8 -10 -16 -6 -16 10 -2 25 -6 34 -9 4 -1 10 -2 14 -1 16 2 59 -73 67 -116
5 -26 17 -61 25 -78 9 -16 16 -37 16 -46 0 -8 4 -19 10 -25 5 -5 11 -29 12
-52 1 -31 7 -46 24 -57 12 -8 29 -28 38 -45 9 -16 23 -43 31 -59 9 -16 22 -34
30 -41 8 -7 15 -18 15 -25 0 -7 11 -20 25 -29 14 -9 25 -21 25 -26 0 -6 16
-33 35 -61 19 -28 35 -59 35 -69 0 -18 37 -50 70 -63 8 -3 -55 -6 -140 -6
l-155 -1 -80 92 c-198 227 -296 369 -339 488 -15 41 -34 82 -41 90 -21 23 -71
141 -91 212 -10 35 -35 106 -57 158 -52 126 -67 182 -62 244 5 58 -12 102 -37
98 -22 -3 -32 16 -18 33 14 17 3 38 -16 31 -26 -10 -59 72 -39 94 23 25 -25
141 -49 121 -16 -14 -24 -6 -59 64 -32 64 -37 89 -17 90 18 0 15 40 -6 91 -14
34 -42 43 -36 11 7 -42 -21 -23 -44 30 -49 110 -56 135 -41 151 15 14 1 68
-38 157 -7 17 -17 44 -21 60 -11 46 -14 48 -39 25 l-24 -22 -16 38 c-9 22 -23
57 -31 79 -8 21 -21 46 -28 55 -49 55 -174 348 -216 505 -18 66 -37 124 -41
130 -5 5 -9 -776 -9 -1758 l0 -1767 2900 0 2900 0 0 1740 c0 957 -2 1740 -4
1740 -5 0 -66 -126 -66 -137 0 -5 -5 -20 -11 -34 -6 -13 -33 -73 -60 -134
l-48 -110 60 -54 60 -54 -107 -59 c-69 -38 -112 -57 -125 -53 -13 5 -22 0 -30
-17 -7 -15 -84 -64 -237 -148 -124 -69 -257 -142 -294 -163 -58 -32 -69 -35
-74 -22 -8 20 13 64 40 87 19 16 20 17 3 36 -9 10 -14 22 -10 26 6 6 13 54 13
103 0 12 5 25 10 28 6 3 10 21 10 39 0 46 29 70 75 63 51 -8 53 10 2 32 -56
24 -62 33 -64 101 -1 30 -7 78 -14 107 -11 47 -11 54 5 72 16 18 16 21 1 51
-9 17 -14 39 -11 47 4 9 2 21 -4 28 -6 7 -12 30 -14 51 -3 22 -9 50 -14 64
-24 66 -23 107 4 125 l25 16 -42 38 c-41 36 -42 40 -41 91 0 30 -4 60 -10 67
-6 7 -8 27 -6 43 3 17 1 33 -4 36 -4 3 -8 18 -8 33 0 15 -10 54 -23 87 -22 54
-25 99 -14 159 7 36 62 53 177 54 58 1 109 6 114 11 5 5 16 5 25 1 9 -5 39 -9
67 -10 29 0 65 -6 80 -12 16 -6 76 -13 134 -15 246 -9 242 -2 214 -409 -8
-123 -9 -134 -17 -141 -4 -4 -7 -15 -7 -24 0 -26 -28 -77 -62 -110 -24 -25
-28 -33 -18 -45 14 -17 11 -50 -20 -188 -12 -54 -19 -105 -16 -114 8 -20 31
-11 31 13 0 10 4 25 8 32 5 7 10 23 11 35 3 21 26 95 81 262 13 39 27 88 31
110 4 22 13 49 20 60 7 11 12 33 10 49 -2 16 3 49 10 72 7 24 13 67 13 96 0
29 0 107 0 173 0 149 11 243 32 271 5 6 4 37 -1 69 -5 32 -7 70 -3 83 9 38 9
74 0 107 -18 68 -19 113 -2 138 12 19 14 31 6 44 -5 11 -11 50 -12 88 -1 39
-5 75 -8 80 -6 11 -7 13 -16 70 -4 22 -10 44 -13 49 -3 5 -6 22 -7 37 -2 16
-12 46 -23 68 -36 68 -39 75 -50 101 -21 48 -25 76 -27 150 -1 41 -7 88 -13
103 -7 16 -12 37 -12 48 0 26 -26 89 -47 111 -9 10 -16 31 -15 48 0 16 -4 32
-9 36 -5 3 -7 14 -4 24 4 13 -2 22 -22 32 -19 9 -30 25 -38 54 -5 23 -16 49
-23 57 -8 9 -17 40 -21 69 -9 67 -15 76 -44 71 -28 -6 -87 65 -87 104 0 21
-29 46 -47 41 -4 -2 -33 21 -63 49 -30 29 -60 53 -66 53 -14 0 -38 36 -46 68
-4 13 3 41 18 69 31 62 20 70 -52 37 -54 -25 -62 -26 -109 -15 -80 20 -104 32
-118 60 -9 19 -19 25 -37 23 -74 -7 -111 -4 -128 11 -10 10 -23 17 -29 17 -6
0 -30 16 -55 35 -57 43 -70 90 -39 134 12 16 21 32 21 36 0 7 141 176 221 265
22 25 53 61 69 81 43 53 179 142 195 129 7 -6 25 -8 39 -4 68 17 207 -87 232
-174 13 -45 28 -68 70 -109 55 -52 74 -57 49 -12 -8 13 -17 31 -21 39 -4 8
-18 32 -31 52 -13 21 -23 42 -23 48 0 35 -112 154 -184 195 -65 37 -138 105
-132 122 3 7 -7 19 -24 28 -17 9 -30 21 -30 28 0 30 -61 70 -154 102 -53 17
-99 34 -102 38 -3 3 -16 1 -29 -5 -17 -7 -36 -6 -73 4 -33 10 -55 12 -66 6
-20 -11 -115 -1 -134 15 -9 7 -19 4 -35 -10 -12 -11 -40 -26 -62 -33 -38 -12
-151 -68 -187 -93 -23 -16 -58 16 -58 54 0 15 -5 40 -11 56 -6 15 -10 82 -10
147 l0 120 51 51 c62 63 59 79 -10 48z m470 -440 c30 -3 66 -6 80 -6 134 1
244 -37 302 -103 29 -34 22 -80 -21 -118 -11 -11 -21 -22 -21 -27 0 -4 -38
-46 -85 -94 -47 -48 -85 -91 -85 -95 0 -5 -39 -55 -86 -112 -47 -57 -95 -121
-106 -142 -25 -49 -147 -198 -157 -192 -4 3 -19 -1 -33 -8 -31 -16 -145 -29
-252 -27 -44 0 -85 -4 -91 -9 -12 -10 -178 -38 -280 -47 -146 -14 -176 -14
-190 -3 -8 6 -18 9 -23 6 -14 -8 -113 -17 -123 -10 -12 7 3 35 67 121 30 40
54 78 54 84 0 46 320 409 360 409 22 0 44 25 35 40 -8 13 93 112 136 135 15 8
29 20 32 28 3 8 32 24 66 37 33 12 66 28 72 36 6 8 16 14 21 14 5 0 24 11 41
24 50 37 181 79 217 69 8 -3 40 -7 70 -10z m-129 -1020 c12 3 33 1 48 -4 14
-6 26 -9 26 -8 0 1 19 -8 43 -20 23 -12 47 -19 52 -16 6 3 22 -1 37 -9 40 -22
150 -66 165 -66 30 0 178 -91 217 -134 14 -14 30 -26 38 -26 28 0 187 -174
216 -235 35 -75 33 -71 90 -141 27 -33 53 -70 58 -84 6 -14 27 -59 48 -100 36
-70 45 -102 58 -190 9 -60 9 -151 1 -156 -5 -3 -6 -10 -3 -15 11 -17 -26 -22
-44 -5 -14 13 -34 15 -107 11 -76 -4 -224 -5 -429 -2 -66 1 -167 -11 -235 -28
-119 -30 -226 -54 -257 -57 -37 -3 -107 44 -151 101 -14 20 -35 44 -47 55 -75
75 -175 202 -170 215 12 31 10 36 -24 39 -35 4 -384 339 -476 457 -21 28 -88
101 -149 163 -61 61 -106 113 -101 114 6 1 28 2 50 4 55 3 97 14 117 31 9 8
22 15 30 17 7 1 19 5 26 10 7 4 29 10 49 12 20 3 42 9 48 14 7 6 23 10 36 10
71 -1 168 9 186 18 11 6 28 11 39 11 10 -1 80 4 154 11 98 9 146 9 174 1 22
-5 44 -7 50 -3 6 3 18 5 28 4 9 -2 19 1 22 7 4 6 17 6 37 -1 16 -5 39 -8 50
-5z m-894 -465 c73 -80 209 -219 303 -309 366 -350 669 -741 630 -813 -13 -25
31 -123 50 -111 9 6 27 -14 32 -35 2 -8 -4 -14 -12 -15 -19 -1 -15 -27 11 -78
10 -21 19 -50 19 -66 0 -16 10 -37 24 -50 16 -15 26 -38 30 -74 4 -28 11 -57
17 -63 5 -6 12 -39 15 -72 4 -34 13 -67 20 -73 8 -6 14 -19 14 -28 0 -9 4 -21
9 -27 6 -5 20 -43 33 -84 13 -41 29 -75 35 -75 20 0 26 -14 13 -30 -13 -15 -4
-69 25 -161 8 -22 16 -67 20 -100 3 -32 9 -72 13 -89 3 -16 7 -37 7 -45 1 -19
12 -77 30 -160 8 -36 14 -85 13 -110 0 -25 7 -80 16 -122 9 -42 13 -84 10 -93
-4 -8 -1 -28 5 -43 6 -15 12 -51 14 -79 2 -29 6 -56 10 -59 11 -12 8 -64 -9
-139 -8 -39 -18 -89 -21 -112 -3 -24 -12 -48 -19 -54 -8 -6 -14 -18 -14 -26 0
-8 -16 -21 -35 -29 -38 -16 -41 -21 -21 -47 11 -14 10 -26 -5 -74 -11 -31 -19
-62 -19 -69 0 -31 -151 -99 -230 -104 l-75 -5 -5 -40 c-5 -36 -10 -42 -74 -78
-73 -41 -85 -40 -86 13 -1 14 -14 41 -30 60 -17 19 -30 41 -30 49 0 8 -9 25
-21 37 -11 12 -21 32 -21 45 -1 13 -9 35 -19 49 -9 14 -20 36 -24 50 -14 46
-53 116 -94 168 -23 28 -41 55 -41 60 0 5 -9 17 -20 27 -11 10 -20 22 -20 26
0 5 -16 29 -35 54 -19 25 -43 65 -53 88 -10 23 -57 89 -103 146 -99 123 -149
188 -149 197 0 3 -22 27 -48 52 -26 26 -70 76 -97 112 -27 36 -66 80 -88 99
-21 19 -57 59 -80 90 -22 31 -52 67 -66 81 -54 54 -198 237 -214 272 -10 20
-21 39 -26 42 -8 5 -6 78 3 102 3 8 0 16 -5 20 -7 4 -8 20 -4 43 4 20 9 54 11
76 7 99 30 314 33 318 2 1 4 16 6 32 2 17 7 55 11 85 4 30 8 74 9 97 2 45 21
77 41 69 23 -9 23 6 1 38 -26 36 -34 108 -14 124 9 8 12 37 11 106 -2 53 1 98
5 100 4 3 6 29 6 58 -1 29 3 96 10 148 7 52 13 111 13 130 6 132 13 205 22
215 5 6 7 20 4 32 -3 11 -1 24 5 27 5 4 8 13 5 21 -3 7 2 24 11 38 12 19 14
33 7 65 -8 35 -6 44 15 71 24 30 24 33 9 57 -18 26 -12 54 7 35 19 -19 41 -12
69 23 l28 35 -21 15 c-31 21 -90 107 -82 119 7 11 67 -50 270 -275z m-412
-248 c-5 -8 -11 -8 -17 -2 -6 6 -7 16 -3 22 5 8 11 8 17 2 6 -6 7 -16 3 -22z
m-9 -125 c-5 -14 -9 -15 -21 -5 -12 10 -13 16 -4 27 15 18 34 1 25 -22z m2029
-413 c326 9 413 -3 441 -59 6 -13 18 -31 27 -41 10 -10 17 -23 17 -29 0 -6 12
-35 27 -65 15 -29 28 -66 30 -83 1 -16 8 -49 14 -72 21 -77 1 -222 -35 -252
-14 -12 -12 -17 17 -53 l32 -40 0 -132 c-1 -218 -9 -224 -262 -206 -98 7 -245
14 -328 16 -204 4 -275 20 -296 69 -11 24 -26 48 -56 92 -13 17 -23 39 -23 47
0 14 -20 66 -41 108 -5 10 -9 27 -9 37 0 11 -4 22 -9 25 -5 3 -7 14 -4 24 2
10 -6 33 -19 52 -13 19 -32 53 -43 75 -11 22 -26 48 -34 57 -7 10 -15 34 -17
54 -1 20 -10 44 -19 54 -10 12 -14 26 -10 39 4 14 0 24 -15 33 -22 13 -60 85
-60 112 0 17 60 66 81 66 8 0 19 4 25 9 9 10 43 20 134 40 94 22 148 27 260
24 63 -1 142 -2 175 -1z m-2065 -102 c0 -25 -18 -36 -26 -16 -8 21 3 49 16 41
5 -3 10 -15 10 -25z m-15 -1270 c10 15 18 8 91 -88 72 -93 115 -144 237 -282
43 -49 76 -92 75 -97 -2 -4 0 -8 3 -8 19 0 48 -39 38 -51 -11 -13 4 -30 19
-20 14 9 135 -143 137 -172 1 -19 6 -26 17 -24 18 3 90 -76 82 -90 -3 -5 2
-18 12 -29 10 -11 19 -27 20 -35 1 -9 9 -23 17 -32 9 -10 19 -29 22 -45 4 -15
16 -32 26 -38 11 -5 17 -14 15 -18 -7 -11 31 -44 42 -37 13 7 36 -20 28 -33
-4 -5 -2 -12 4 -16 5 -3 10 -16 11 -28 0 -12 18 -51 39 -87 22 -36 47 -81 55
-100 9 -19 20 -43 25 -52 6 -10 10 -25 10 -35 0 -9 6 -24 14 -32 8 -9 16 -38
18 -66 3 -44 7 -50 25 -48 11 1 29 -7 38 -17 10 -11 15 -20 10 -20 -4 0 -1 -7
6 -16 7 -9 14 -23 15 -32 2 -8 15 -38 29 -64 15 -27 25 -51 23 -52 -1 -2 -42
-25 -90 -51 l-88 -49 0 -148 0 -147 -97 -3 -98 -3 -2 -260 c-3 -251 -4 -261
-24 -277 -12 -10 -27 -18 -34 -18 -23 0 -103 88 -115 128 -7 20 -20 46 -30 57
-10 11 -21 31 -25 45 -4 14 -14 36 -23 50 -28 43 -41 64 -52 89 -6 13 -31 47
-57 75 -25 28 -63 76 -84 107 -58 86 -367 389 -397 389 -5 0 -23 18 -41 40
-17 22 -37 40 -44 40 -13 0 -137 120 -137 133 0 5 -9 20 -20 34 -16 20 -17 28
-7 44 9 14 9 21 -1 31 -18 18 -16 113 3 128 11 9 12 16 5 25 -5 6 -7 15 -3 19
10 10 16 67 28 273 2 28 6 57 10 63 4 6 9 46 11 88 6 105 8 125 15 137 7 11
20 105 24 172 2 23 10 55 18 71 10 21 11 34 4 41 -7 7 -7 15 2 24 6 9 10 33 7
58 -3 29 2 56 13 79 10 22 15 52 13 80 -3 51 30 176 47 173 6 -2 15 6 21 18 9
15 15 18 25 9 9 -8 15 -8 20 0z m-217 -57 c6 -10 8 -43 7 -73 -6 -125 -16
-227 -25 -255 -5 -16 -14 -77 -20 -135 -6 -57 -15 -109 -18 -115 -4 -5 -7 -14
-8 -20 -1 -5 -5 -23 -9 -40 -20 -96 -28 -146 -30 -200 -1 -33 -3 -62 -5 -65
-3 -6 -8 -52 -12 -115 -2 -28 -8 -57 -13 -65 -5 -8 -10 -31 -11 -50 -2 -34
-10 -82 -14 -87 -2 -2 -4 -24 -5 -50 -5 -73 -45 -235 -67 -266 -11 -15 -43
-39 -71 -54 -29 -14 -63 -33 -77 -43 -14 -10 -36 -21 -50 -25 -14 -4 -36 -18
-50 -30 -27 -25 -157 -115 -166 -115 -3 0 -20 -10 -37 -23 -48 -34 -69 -46
-104 -62 -18 -9 -33 -21 -33 -29 0 -7 -28 -43 -62 -78 -73 -76 -114 -121 -181
-198 -26 -30 -65 -69 -87 -86 -21 -17 -61 -57 -88 -90 -45 -53 -112 -106 -112
-88 0 3 -6 1 -14 -5 -17 -14 -80 53 -91 96 -3 15 -15 38 -26 51 -10 14 -19 32
-19 40 0 9 -7 23 -16 33 -8 9 -16 32 -18 51 -1 18 -13 51 -27 73 -15 22 -32
67 -39 100 -6 33 -19 89 -27 125 -9 36 -17 108 -20 160 -2 52 -5 112 -6 133
-1 22 2 41 6 44 4 2 5 13 2 23 -8 26 8 60 51 105 21 22 38 43 39 48 0 4 13 24
30 45 16 20 30 40 30 43 0 4 24 30 53 59 29 28 61 69 72 90 11 21 38 58 60 82
22 24 59 68 83 98 23 30 53 57 67 60 13 3 32 21 44 43 12 20 32 44 46 54 14 9
49 39 78 66 35 32 59 47 71 44 12 -3 33 13 67 51 95 108 164 168 279 245 55
37 125 86 155 107 30 22 71 51 92 65 20 13 39 29 43 35 7 12 143 117 175 135
9 6 31 25 49 43 37 37 47 39 59 15z m-53 -1643 c3 -5 13 -10 22 -10 9 0 24 -6
32 -14 9 -8 29 -21 44 -29 32 -17 134 -104 189 -162 21 -22 42 -40 46 -40 5 0
23 -17 41 -37 18 -21 38 -38 45 -38 10 0 70 -60 197 -197 21 -23 39 -47 39
-53 0 -5 13 -29 30 -51 16 -23 32 -56 36 -74 3 -18 19 -46 35 -61 16 -15 29
-33 29 -39 0 -6 13 -24 29 -39 16 -16 32 -40 36 -54 3 -14 15 -38 26 -53 10
-15 19 -35 19 -45 0 -9 6 -25 14 -33 27 -30 23 -54 -12 -75 -107 -68 -96 -51
-102 -157 -4 -85 -8 -100 -33 -132 -32 -43 -84 -83 -111 -88 -12 -3 -23 -16
-27 -33 -8 -28 -74 -106 -91 -106 -4 0 -27 -14 -52 -31 -25 -17 -50 -28 -54
-25 -5 3 -17 -1 -27 -8 -32 -23 -82 -3 -144 58 -31 31 -72 64 -91 74 -120 62
-141 72 -153 72 -58 0 -159 108 -138 148 4 10 7 48 7 85 -1 43 3 72 10 78 10
8 10 19 -1 48 -16 48 -12 127 9 150 9 10 13 20 10 24 -16 16 -12 76 7 93 10 9
19 25 19 34 0 9 5 21 12 28 7 7 9 12 6 12 -4 0 -3 13 2 29 7 24 4 33 -15 51
-13 12 -22 29 -20 38 1 9 -3 26 -9 37 -17 29 -3 343 17 380 6 11 10 51 9 89
-1 38 3 75 9 82 6 7 9 21 7 32 -5 32 32 66 47 42z m-184 -105 c4 -49 4 -122 0
-130 -6 -11 -9 -36 -12 -80 -1 -16 -6 -35 -11 -42 -6 -7 -5 -19 1 -31 8 -15 7
-23 -4 -32 -12 -10 -13 -16 -4 -26 6 -8 9 -14 6 -14 -3 0 -1 -16 3 -35 4 -19
4 -37 0 -40 -8 -5 -11 -34 -11 -110 0 -70 -27 -176 -51 -201 -19 -21 -11 -43
11 -29 15 9 22 -11 12 -36 -4 -13 -4 -37 0 -53 5 -16 5 -34 0 -40 -12 -16 -23
-78 -21 -121 1 -29 -8 -270 -10 -272 -3 -3 -4 -6 -13 -55 -9 -44 -104 -147
-157 -170 -68 -31 -129 -50 -138 -44 -5 3 -15 -1 -22 -9 -45 -54 -181 -99
-227 -74 -23 13 -110 119 -97 119 4 0 -2 10 -13 23 -11 12 -31 47 -46 77 -14
30 -42 71 -62 90 -37 36 -53 63 -98 180 -25 64 -36 110 -43 180 -2 19 -8 54
-14 78 -26 108 20 180 208 321 39 30 72 59 72 64 0 5 16 27 35 50 19 22 35 45
35 51 0 5 15 24 33 41 17 18 54 57 81 88 28 31 52 55 54 52 3 -2 18 7 34 20
16 14 35 25 42 25 7 0 31 16 55 36 23 20 45 34 48 31 3 -4 23 9 45 27 24 21
46 32 58 29 12 -3 22 3 29 16 7 12 20 21 29 21 10 0 40 20 67 44 l50 45 22
-27 c13 -15 23 -31 24 -37z m976 -1523 l2 -132 -200 0 c-120 0 -198 4 -194 9
7 12 76 36 93 33 7 -2 15 4 18 13 4 9 21 23 38 32 17 9 46 29 64 44 18 16 39
29 48 29 8 0 17 8 21 18 8 22 85 92 98 88 6 -1 11 -57 12 -134z m-823 83 c27
-8 56 -20 64 -27 8 -7 20 -13 26 -13 55 -4 156 -102 156 -152 l0 -23 -199 0
c-204 0 -236 7 -196 40 11 9 12 17 5 30 -7 13 -5 27 5 47 8 15 15 32 15 37 0
16 50 76 63 76 7 0 34 -7 61 -15z m-348 -173 c22 2 28 -1 29 -19 2 -23 0 -23
-133 -23 -131 0 -165 6 -86 16 21 3 43 9 50 14 6 6 18 8 27 4 8 -3 18 0 22 5
3 6 10 9 15 6 5 -3 12 -1 15 5 5 8 11 8 20 0 8 -6 26 -10 41 -8z"/>
<path d="M3366 6052 c-3 -6 1 -15 8 -21 8 -7 17 -8 20 -3 3 6 -1 15 -8 21 -8
7 -17 8 -20 3z"/>
<path d="M3146 4801 c-3 -5 5 -16 19 -25 13 -9 26 -12 29 -7 3 5 -5 16 -19 25
-13 9 -26 12 -29 7z"/>
<path d="M3366 4652 c-3 -6 1 -15 8 -21 8 -7 17 -8 20 -3 3 6 -1 15 -8 21 -8
7 -17 8 -20 3z"/>
<path d="M3516 4512 c-3 -6 1 -15 8 -21 8 -7 17 -8 20 -3 3 6 -1 15 -8 21 -8
7 -17 8 -20 3z"/>
<path d="M3566 4463 c-3 -4 22 -34 57 -68 138 -137 237 -295 237 -380 0 -21
251 -263 268 -257 20 6 3 28 -108 140 -66 66 -120 128 -120 136 0 8 -4 18 -10
21 -5 3 -10 13 -10 21 0 28 -59 135 -102 186 -121 142 -198 215 -212 201z"/>
<path d="M4136 3731 c-4 -5 -2 -12 4 -16 6 -4 8 -10 5 -15 -3 -5 2 -24 12 -42
9 -18 17 -36 18 -40 0 -5 3 -8 8 -8 4 0 10 0 13 0 4 0 1 6 -5 13 -6 8 -8 16
-5 19 3 4 -3 21 -12 40 -10 18 -18 36 -19 40 0 13 -13 19 -19 9z"/>
<path d="M2745 1071 c-7 -12 12 -24 25 -16 11 7 4 25 -10 25 -5 0 -11 -4 -15
-9z"/>
<path d="M3278 7885 c-4 -4 7 -30 24 -58 17 -29 41 -83 55 -122 13 -38 32 -77
43 -85 11 -9 23 -29 26 -45 3 -17 9 -34 13 -38 10 -10 116 92 125 121 4 11 13
26 21 32 8 7 15 25 15 41 0 30 -14 46 -25 29 -4 -6 -18 -15 -31 -20 -13 -5
-24 -17 -24 -27 0 -10 -9 -29 -20 -43 -11 -14 -20 -30 -20 -36 0 -28 -29 -37
-39 -13 -38 95 -63 221 -46 239 25 28 1 33 -25 5 -30 -32 -44 -31 -67 1 -10
14 -21 22 -25 19z"/>
<path d="M2964 7827 c-8 -23 3 -50 19 -44 13 4 11 36 -4 51 -5 6 -11 3 -15 -7z"/>
<path d="M3436 7821 c-3 -5 5 -16 19 -25 13 -9 26 -12 29 -7 3 5 -5 16 -19 25
-13 9 -26 12 -29 7z"/>
<path d="M2605 7730 c-3 -5 -3 -10 1 -10 4 0 -1 -9 -11 -20 -13 -15 -15 -24
-8 -31 8 -8 14 -5 22 10 7 12 9 21 5 21 -3 0 -1 6 5 14 8 9 8 16 2 20 -5 4
-12 2 -16 -4z"/>
<path d="M3444 7476 c-8 -21 3 -49 16 -41 5 3 10 15 10 25 0 25 -18 36 -26 16z"/>
<path d="M831 7036 c-28 -30 -12 -43 20 -17 17 14 21 23 13 30 -7 8 -17 4 -33
-13z"/>
<path d="M5348 6843 c-2 -5 -5 -24 -7 -43 -1 -19 -11 -47 -22 -62 -21 -31 -12
-42 26 -32 19 5 35 1 55 -14 15 -12 30 -19 33 -16 7 7 -20 59 -38 74 -8 7 -15
23 -15 36 0 12 -5 26 -10 29 -6 4 -8 10 -5 15 3 5 1 11 -4 14 -5 4 -11 3 -13
-1z"/>
<path d="M2950 5379 c-14 -26 -5 -58 12 -41 15 15 20 49 8 57 -5 3 -14 -4 -20
-16z"/>
<path d="M615 4451 c-7 -12 12 -24 25 -16 11 7 4 25 -10 25 -5 0 -11 -4 -15
-9z"/>
<path d="M1915 4296 c-29 -39 -65 -82 -80 -96 -15 -14 -46 -52 -68 -85 -22
-33 -63 -83 -90 -111 -29 -29 -58 -71 -68 -100 -26 -67 -8 -80 24 -18 14 27
44 67 67 89 23 22 62 69 85 105 70 104 213 250 255 259 50 10 39 26 -21 27
l-50 2 -54 -72z"/>
<path d="M1551 3761 c-6 -11 -11 -30 -11 -43 0 -29 -69 -98 -121 -122 -44 -21
-114 -90 -104 -105 4 -7 25 5 57 34 28 25 79 61 113 80 66 37 80 57 89 122 7
46 -7 65 -23 34z"/>
<path d="M5405 3041 c-9 -19 -11 -32 -5 -36 15 -9 27 2 32 30 8 37 -9 40 -27
6z"/>
<path d="M277 3043 c-9 -15 24 -117 55 -172 18 -31 33 -60 33 -66 0 -5 5 -10
10 -10 16 0 12 38 -6 60 -17 20 -29 52 -52 139 -13 47 -29 67 -40 49z"/>
<path d="M5360 2931 c-7 -14 -7 -22 1 -27 14 -8 43 21 35 35 -11 17 -24 13
-36 -8z"/>
<path d="M5310 2835 c-13 -14 -20 -25 -15 -25 5 0 4 -5 -3 -12 -14 -14 -16
-54 -3 -62 14 -9 33 21 29 48 -2 16 4 30 17 40 14 10 17 18 9 25 -7 8 -17 4
-34 -14z"/>
</g>
</svg>
